<svg preserveAspectRatio="none" overflow="visible" style="display: block;" width="187.806" height="29" viewBox="0 0 187.806 29" fill="none" xmlns="http://www.w3.org/2000/svg">
<g id="Frame 1321315403">
<circle id="Ellipse 1003" opacity="0" cx="9" cy="14.5" r="10" fill="#9CA3AF" stroke="white" stroke-width="2"/>
<g id="Group 1261156659">
<circle id="Ellipse 1004" cx="61.7686" cy="14.5" r="13.25" fill="#40C522" stroke="#F9FAFB" stroke-width="2.5"/>
<path id="check" d="M56.7686 14.2764L60.1019 17.7764L66.7686 10.7764" stroke="white" stroke-width="3" stroke-miterlimit="10" stroke-linecap="round" stroke-linejoin="round"/>
</g>
<g id="Group 1261156662">
<circle id="Ellipse 1004_2" cx="117.537" cy="14.5" r="13.25" fill="#40C522" stroke="#F9FAFB" stroke-width="2.5"/>
<path id="check_2" d="M112.537 14.2764L115.87 17.7764L122.537 10.7764" stroke="white" stroke-width="3" stroke-miterlimit="10" stroke-linecap="round" stroke-linejoin="round"/>
</g>
<g id="Group 1261156661">
<circle id="Ellipse 1006" cx="173.306" cy="14.5" r="13.25" fill="#9CA3AF" stroke="#F9FAFB" stroke-width="2.5"/>
<g id="Media / Icon V1 solid">
<path id="Icon" fill-rule="evenodd" clip-rule="evenodd" d="M169.931 13.7766V12.3766C169.931 10.4436 171.498 8.87656 173.431 8.87656C175.364 8.87656 176.931 10.4436 176.931 12.3766V13.7766C177.704 13.7766 178.331 14.4034 178.331 15.1766V18.6766C178.331 19.4498 177.704 20.0766 176.931 20.0766H169.931C169.157 20.0766 168.531 19.4498 168.531 18.6766V15.1766C168.531 14.4034 169.157 13.7766 169.931 13.7766ZM175.531 12.3766V13.7766H171.331V12.3766C171.331 11.2168 172.271 10.2766 173.431 10.2766C174.59 10.2766 175.531 11.2168 175.531 12.3766Z" fill="white"/>
</g>
</g>
</g>
</svg>
